<?xml version="1.0" encoding="utf-8"?>
<!-- Generator: Adobe Illustrator 24.1.0, SVG Export Plug-In . SVG Version: 6.00 Build 0)  -->
<svg version="1.1" id="Layer_1" xmlns="http://www.w3.org/2000/svg" xmlns:xlink="http://www.w3.org/1999/xlink" x="0px" y="0px"
	 viewBox="0 0 103.2 105.1" style="enable-background:new 0 0 103.2 105.1;" xml:space="preserve">
<style type="text/css">
	.st0{fill:#FFFFFF;}
	.st1{fill:#070909;}
	.st2{fill:#D0B316;}
</style>
<g>
	<g>
		<circle class="st0" cx="51.9" cy="52.6" r="39.8"/>
		<path class="st1" d="M51.5,1.7c6.9,0,13.3,1.3,19.4,4c6,2.7,11.4,6.3,15.9,11c9.3,9.5,14.2,21.4,14.6,35.6v48.1h-0.2
			c-3.6,0-6.6-1.2-9.1-3.7s-3.8-5.6-4-9.4c-0.4,0.5-0.9,1-1.3,1.5c-4.6,4.7-9.9,8.3-15.9,11c-6.1,2.7-12.5,4-19.4,4
			s-13.4-1.3-19.5-4s-11.4-6.3-16-11c-4.5-4.7-8.1-10.1-10.7-16.3c-2.5-6.2-3.8-12.8-3.8-19.8c0-7.1,1.3-13.7,3.9-19.9
			c2.6-6.1,6.2-11.5,10.7-16.1c4.6-4.7,9.9-8.3,16-11C38.1,3,44.6,1.7,51.5,1.7z M88.2,53v-0.6c-0.3-10.5-3.9-19.2-10.7-26.2
			c-3.4-3.4-7.3-6.1-11.7-8.1c-4.5-1.9-9.2-2.9-14.2-2.9c-5.1,0-9.9,1-14.3,2.9c-4.5,1.9-8.3,4.6-11.7,8.1c-3.4,3.4-6,7.4-7.9,11.9
			s-2.9,9.4-2.9,14.6s1,10,2.9,14.6c1.9,4.5,4.6,8.5,7.9,11.9s7.2,6.1,11.7,8.1c4.5,1.9,9.2,2.9,14.3,2.9c5,0,9.8-1,14.2-2.9
			c4.5-1.9,8.4-4.6,11.7-8.1C84.3,72.2,87.9,63.5,88.2,53z"/>
	</g>
	<g>
		<path class="st2" d="M54.4,64.5c0,0.9,0,1.7,0,2.3s0,1.1,0.1,1.4c0,0.4,0.1,0.7,0.1,0.8c-1.9,0-3.4-0.4-4.5-1.2
			c-1-0.8-1.5-2.2-1.5-4l0.1-22.7H38.3c0-1.4,0.4-2.5,1.2-3.4c0.8-0.8,1.9-1.3,3.3-1.3h21.9c0,1.4-0.4,2.5-1.2,3.4
			c-0.8,0.8-1.9,1.3-3.3,1.3h-5.9L54.4,64.5z"/>
		<path class="st2" d="M56.2,70.4h-1.7c-2.3,0-4.1-0.5-5.3-1.5c-1.4-1.1-2.1-2.8-2.1-5.1l0.1-21.3H36.9v-1.4c0-1.8,0.5-3.2,1.6-4.3
			s2.5-1.7,4.4-1.7h23.3v1.4c0,1.8-0.5,3.2-1.6,4.3c-1.1,1.1-2.5,1.7-4.4,1.7h-4.4v22c0,0.9,0,1.7,0,2.3s0,1,0.1,1.3
			c0,0.3,0.1,0.6,0.1,0.7L56.2,70.4z M39.9,39.6H50l-0.1,24.1c0,1.4,0.3,2.4,1,2.9c0.5,0.4,1.2,0.7,2,0.8c0-0.2,0-0.4,0-0.7
			c0-0.6,0-1.4,0-2.3V39.6h7.3c1,0,1.8-0.3,2.3-0.8c0.3-0.3,0.5-0.6,0.6-1H42.8c-1,0-1.8,0.3-2.3,0.8C40.3,38.9,40.1,39.2,39.9,39.6
			z"/>
	</g>
</g>
</svg>
