<?xml version="1.0" encoding="utf-8"?>
<!-- Generator: Adobe Illustrator 24.1.0, SVG Export Plug-In . SVG Version: 6.00 Build 0)  -->
<svg version="1.1" id="Layer_1" xmlns="http://www.w3.org/2000/svg" xmlns:xlink="http://www.w3.org/1999/xlink" x="0px" y="0px"
	 viewBox="0 0 105.2 107" style="enable-background:new 0 0 105.2 107;" xml:space="preserve">
<style type="text/css">
	.st0{fill:#D0B316;}
	.st1{fill:#070909;}
</style>
<g>
	<circle class="st0" cx="52.9" cy="53.2" r="39.8"/>
	<path class="st1" d="M52.5,2.3c6.9,0,13.3,1.3,19.4,4c6,2.7,11.4,6.3,15.9,11c9.3,9.5,14.2,21.4,14.6,35.6V101h-0.2
		c-3.6,0-6.6-1.2-9.1-3.7s-3.8-5.6-4-9.4c-0.4,0.5-0.9,1-1.3,1.5c-4.6,4.7-9.9,8.3-15.9,11c-6.1,2.7-12.5,4-19.4,4s-13.4-1.3-19.5-4
		s-11.4-6.3-16-11c-4.5-4.7-8.1-10.1-10.7-16.3c-2.5-6.2-3.8-12.8-3.8-19.8c0-7.1,1.3-13.7,3.9-19.9c2.6-6.1,6.2-11.5,10.7-16.1
		c4.6-4.7,9.9-8.3,16-11C39.1,3.6,45.6,2.3,52.5,2.3z M89.2,53.6V53c-0.3-10.5-3.9-19.2-10.7-26.2c-3.4-3.4-7.3-6.1-11.7-8.1
		c-4.5-1.9-9.2-2.9-14.2-2.9c-5.1,0-9.9,1-14.3,2.9c-4.5,1.9-8.3,4.6-11.7,8.1c-3.4,3.4-6,7.4-7.9,11.9s-2.9,9.4-2.9,14.6
		s1,10,2.9,14.6c1.9,4.5,4.6,8.5,7.9,11.9s7.2,6.1,11.7,8.1c4.5,1.9,9.2,2.9,14.3,2.9c5,0,9.8-1,14.2-2.9c4.5-1.9,8.4-4.6,11.7-8.1
		C85.3,72.8,88.9,64.1,89.2,53.6z"/>
</g>
</svg>
